<svg xmlns="http://www.w3.org/2000/svg" xmlns:xlink="http://www.w3.org/1999/xlink" viewBox="0 0 438.89 213.56"><defs><style>.cls-1{fill:#b54826;}.cls-2{fill:url(#linear-gradient);}.cls-3{fill:url(#linear-gradient-2);}</style><linearGradient id="linear-gradient" x1="778.02" y1="490.96" x2="778.02" y2="388.12" gradientUnits="userSpaceOnUse"><stop offset="0" stop-color="#fff" stop-opacity="0"/><stop offset="0.01" stop-color="#fefcf6" stop-opacity="0.06"/><stop offset="0.05" stop-color="#fcf1d4" stop-opacity="0.31"/><stop offset="0.09" stop-color="#fae8b6" stop-opacity="0.52"/><stop offset="0.13" stop-color="#f8e09e" stop-opacity="0.69"/><stop offset="0.17" stop-color="#f7da8b" stop-opacity="0.83"/><stop offset="0.2" stop-color="#f6d67e" stop-opacity="0.92"/><stop offset="0.23" stop-color="#f5d376" stop-opacity="0.98"/><stop offset="0.26" stop-color="#f5d273"/></linearGradient><linearGradient id="linear-gradient-2" x1="778.03" y1="491.03" x2="778.03" y2="388.07" gradientUnits="userSpaceOnUse"><stop offset="0" stop-color="#fff" stop-opacity="0"/><stop offset="0.33" stop-color="#f5d273"/></linearGradient></defs><g id="Layer_1" data-name="Layer 1"><path class="cls-1" d="M686.43,492.93H751a40,40,0,0,1,1.1,6.25c.17,1.92.26,3.78.26,5.58s-.09,3.69-.26,5.66a39.86,39.86,0,0,1-1.1,6.34H715v13.52h29.07a41.15,41.15,0,0,1,1.09,6.25c.17,1.92.26,3.78.26,5.58s-.09,3.69-.26,5.66a41.14,41.14,0,0,1-1.09,6.34H715V600a43.82,43.82,0,0,1-7.27,1.1q-3.72.26-6.93.26-3.37,0-7-.26a47.32,47.32,0,0,1-7.35-1.1Zm77.91,0a56.14,56.14,0,0,1,7.35-1.18q3.63-.35,7-.34,3.21,0,6.93.34a51.25,51.25,0,0,1,7.27,1.18v87.2q-4.39.68-7.95,1t-6.42.33c-1.92,0-4-.11-6.42-.33s-5-.57-7.77-1Z" transform="translate(-686.43 -387.76)"/><path class="cls-1" d="M807.09,493.27q7.93-1,16.48-1.69t16.14-.68q20.44,0,30.67,7.69t10.23,21.55a31.38,31.38,0,0,1-1.19,9.12,29.61,29.61,0,0,1-2.87,6.68,20.2,20.2,0,0,1-3.55,4.48c-1.24,1.12-2.25,2-3,2.7L889.22,580a66.9,66.9,0,0,1-7.52,1c-2.76.22-5.43.34-8,.34-3.16,0-6.2-.12-9.13-.34a49.73,49.73,0,0,1-7.27-1l-18.76-39.88,2.37-1.35q5.91-3.37,8.11-7.18a16.08,16.08,0,0,0,2.2-8.2,10,10,0,0,0-2.62-7.18q-2.62-2.79-8.37-2.79a26.31,26.31,0,0,0-4.9.34v66.41a66.91,66.91,0,0,1-7.94,1.1q-3.55.25-6.25.25c-1.92,0-4-.08-6.26-.25a68,68,0,0,1-7.77-1.1Z" transform="translate(-686.43 -387.76)"/><path class="cls-1" d="M916.27,545.66q1.85,6.93,6.5,9.8T935,558.33a58,58,0,0,0,11-1.18,66.33,66.33,0,0,0,12-3.55,54.36,54.36,0,0,1,4.14,10.48,49.58,49.58,0,0,1,1.94,12.67,87.79,87.79,0,0,1-30.76,5.58q-12.17,0-20.87-3.38a37,37,0,0,1-14.19-9.38,37.46,37.46,0,0,1-8.11-14.28,62.81,62.81,0,0,1,.08-36.17,41.6,41.6,0,0,1,8.11-14.7,38.36,38.36,0,0,1,13.52-9.89,46,46,0,0,1,18.93-3.63,39.76,39.76,0,0,1,16,3,34.76,34.76,0,0,1,11.91,8.37,36.39,36.39,0,0,1,7.53,12.84,49.45,49.45,0,0,1,2.62,16.31,71.86,71.86,0,0,1-.43,8.2q-.42,3.63-.76,6ZM943,526.22a16.49,16.49,0,0,0-3.64-9.88c-2.19-2.65-5.38-4-9.54-4a13.71,13.71,0,0,0-9.3,3.38q-3.88,3.39-4.56,10.48Z" transform="translate(-686.43 -387.76)"/><path class="cls-1" d="M995.19,545.15a32.6,32.6,0,0,1-14.87-8.62q-5.93-6.09-5.92-16.56a26.08,26.08,0,0,1,10.31-21.21,35.33,35.33,0,0,1,11.58-5.83,50.78,50.78,0,0,1,14.78-2,80.72,80.72,0,0,1,14,1.35,102.92,102.92,0,0,1,15,3.89,51.7,51.7,0,0,1-2.2,11.58,69,69,0,0,1-4.22,10.9,75.12,75.12,0,0,0-11-3.38,51.24,51.24,0,0,0-11.83-1.52q-7.93,0-7.94,4.39a3.14,3.14,0,0,0,1.86,2.87,20.52,20.52,0,0,0,4.22,1.69l11,2.88a55.41,55.41,0,0,1,9.21,3.29,24.06,24.06,0,0,1,7.1,5,21.64,21.64,0,0,1,4.65,7.43,29.89,29.89,0,0,1,1.69,10.65,28,28,0,0,1-2.62,12,26.48,26.48,0,0,1-7.78,9.63,39.19,39.19,0,0,1-12.67,6.42,57.71,57.71,0,0,1-17.32,2.37,90.54,90.54,0,0,1-15-1.18,82.5,82.5,0,0,1-14.7-4.06,68,68,0,0,1,6.25-23.32,52.25,52.25,0,0,0,11.33,3.8,55.92,55.92,0,0,0,11.83,1.27c1.35,0,2.76-.06,4.22-.17a15.42,15.42,0,0,0,3.89-.76,7.91,7.91,0,0,0,2.79-1.61,3.49,3.49,0,0,0,1.1-2.7,3.55,3.55,0,0,0-2.2-3.3,32,32,0,0,0-5.07-1.94Z" transform="translate(-686.43 -387.76)"/><path class="cls-1" d="M1070.39,495.76h-25a39.86,39.86,0,0,1-1.1-6.34c-.17-2-.25-3.86-.25-5.66s.08-3.66.25-5.58a40,40,0,0,1,1.1-6.25H1124a40,40,0,0,1,1.1,6.25c.17,1.92.26,3.78.26,5.58s-.09,3.69-.26,5.66a39.86,39.86,0,0,1-1.1,6.34h-25v84.37c-2.93.45-5.57.79-7.94,1s-4.51.33-6.42.33-4.06-.11-6.42-.33-5-.57-7.78-1Z" transform="translate(-686.43 -387.76)"/></g><g id="Layer_2" data-name="Layer 2"><path class="cls-2" d="M727.91,491c-2.57-3.89-2-10.27,0-14.72s8.27-15.57,11.12-19.07,5.53-7.89,5.86-13.15a102,102,0,0,0-1.8,14.42c-.33,7.85-2.63,15.88,2,20.49,4.82,4.85,12.08,2.19,16-4s2.92-3.92,5.28-11.11A70.82,70.82,0,0,0,765,447.63c-1-4.46-2.53-8.66-3.41-13.15-3.08-15.7,2.46-31.91,7.85-46.36a101.67,101.67,0,0,0-4.25,32.35c.17,6,1.11,12.57,4.55,16.21,2.86,3,6.73,3.23,10.31,3.11,4.49-.16,9.58-1.12,12.18-6.18,2.09-4.06,1.86-9.76.25-14.22a31.51,31.51,0,0,0-7.22-10.92c6.18,2.18,12.68,6.34,15.21,14.43,1.78,5.66,1.24,12.22-.1,18.11S797,452.4,795.6,458.28c-1.29,5.56-1.85,8.86,0,14.07a18,18,0,0,0,4.59,6.89A12.21,12.21,0,0,0,812.47,482c4.2-1.23,6-9.61,7.08-15.35s-.85-12.54-4.74-15.06c9.16,1.91,17.56,24.93,14.35,37" transform="translate(-686.43 -387.76)"/><path class="cls-3" d="M728.24,490.77c-3.94-6.2-.53-13.59,2.55-19.32a117.64,117.64,0,0,1,9.53-15.29,23.17,23.17,0,0,0,5-12.14c0-.42-.67-.52-.74-.1a126.84,126.84,0,0,0-1.81,14.52c-.24,4.88-1.37,9.88-.68,14.76.51,3.71,2.71,7.15,6.45,8.27,3.54,1.06,7.23-.47,9.89-2.81a23.56,23.56,0,0,0,4-5.17c.71-1.11,1.49-2.19,2.09-3.37a20.89,20.89,0,0,0,1.19-3.14,21.56,21.56,0,0,0,1-3.07,23.68,23.68,0,0,0,0-4,67.11,67.11,0,0,0-2.52-17c-1.61-5.71-3-11.27-3.11-17.24-.17-13,4.24-25.52,8.71-37.53l-.72-.2a101.18,101.18,0,0,0-4.17,24.17A83.06,83.06,0,0,0,765,424.1a27.67,27.67,0,0,0,2.3,9.62,10.7,10.7,0,0,0,6.33,5.81,21.57,21.57,0,0,0,9.05.43,13.88,13.88,0,0,0,7.18-2.79,12.28,12.28,0,0,0,4.05-7.88c1.16-8.18-3-15.33-8.4-21.09l-.36.63a26.84,26.84,0,0,1,9.93,5.94A20.84,20.84,0,0,1,801,427.18c1.32,10.75-3.4,20.77-5.79,31-1,4.22-1.69,8.35-.49,12.6A18,18,0,0,0,802,481.09a12.52,12.52,0,0,0,11,1.11c2.78-1.18,4.06-4.7,4.92-7.35,1.3-4,2.52-8.64,2.21-12.9-.3-3.95-1.76-8.35-5.18-10.67l-.29.68c4.58,1,7.6,6,9.56,9.9a48.58,48.58,0,0,1,5.07,17.59,26.74,26.74,0,0,1-.54,9,.37.37,0,0,0,.72.2c1.47-5.68.58-11.92-.93-17.51s-3.91-11.53-7.82-16a11.52,11.52,0,0,0-5.86-3.93.37.37,0,0,0-.29.68c3.34,2.27,4.67,6.76,4.84,10.6s-.89,7.73-2,11.3c-.84,2.85-2.13,6.93-5.32,7.88A12.1,12.1,0,0,1,800,478.45a18.17,18.17,0,0,1-5.17-12.28c-.06-4.61,1.46-9.35,2.75-13.73,2.63-8.94,5.87-18.33,3.8-27.75-1.83-8.31-8.22-13.8-16-16.59-.37-.13-.6.37-.36.63,4.66,5,8.37,10.86,8.36,17.92,0,3.23-.79,6.64-3,9.07a12.05,12.05,0,0,1-7.25,3.44,22.76,22.76,0,0,1-8.35-.11,10.1,10.1,0,0,1-6.91-6c-2.74-6.1-2.48-13.59-2.19-20.13a100.74,100.74,0,0,1,4.18-24.67c.14-.47-.56-.65-.72-.2-3.67,9.84-7.19,19.88-8.36,30.37a53.52,53.52,0,0,0,.42,15.73c1,5.23,2.93,10.22,3.87,15.46a65,65,0,0,1,.91,8.69c.05,1.37.07,2.73.07,4.1a12.44,12.44,0,0,1-.82,3.85,24.58,24.58,0,0,1-2.88,6.11c-2.36,3.63-4.82,7.33-9.29,8.46a8.13,8.13,0,0,1-9.67-5.36c-1.66-4.81-.31-10.38,0-15.3.19-2.63.27-5.25.6-7.87s.84-5.43,1.28-8.14l-.73-.1c-.57,7.49-6,12.73-9.73,18.84q-2.64,4.36-5,8.89a34.28,34.28,0,0,0-3.4,7.84c-.92,3.78-.94,8.17,1.21,11.56.26.41.91,0,.65-.38Z" transform="translate(-686.43 -387.76)"/></g></svg>